<svg width="680" height="770" viewBox="0 0 680 770" xmlns="http://www.w3.org/2000/svg" font-family="-apple-system,PingFang SC,Segoe UI,Roboto,Helvetica,Arial,sans-serif">
<defs><marker id="arrow" viewBox="0 0 10 10" refX="8" refY="5" markerWidth="6" markerHeight="6" orient="auto-start-reverse"><path d="M2 1L8 5L2 9" fill="none" stroke="#888780" stroke-width="1.5" stroke-linecap="round" stroke-linejoin="round"/></marker></defs>
<rect x="0" y="0" width="680" height="770" fill="#ffffff"/>

<rect x="30" y="44" width="620" height="104" rx="8" fill="none" stroke="#D3D1C7" stroke-width="0.5" stroke-dasharray="4 3"/>
<text x="42" y="64" font-size="14" font-weight="500" fill="#2C2C2A">① 生成用例</text>
<rect x="54" y="82" width="136" height="52" rx="4" fill="#ffffff" stroke="#B4B2A9" stroke-width="0.5"/>
<text x="122" y="104" text-anchor="middle" font-size="14" font-weight="500" fill="#2C2C2A">一句话目标</text>
<text x="122" y="120" text-anchor="middle" font-size="12" fill="#5F5E5A">人给测试意图</text>
<rect x="246" y="82" width="170" height="52" rx="4" fill="#F1EFE8" stroke="#888780" stroke-width="0.5"/>
<text x="331" y="104" text-anchor="middle" font-size="14" font-weight="500" fill="#2C2C2A">adb-testcase-gen</text>
<text x="331" y="120" text-anchor="middle" font-size="12" fill="#5F5E5A">真机探 App·锚真实控件</text>
<rect x="468" y="82" width="162" height="52" rx="4" fill="#E1F5EE" stroke="#0F6E56" stroke-width="0.5"/>
<text x="549" y="104" text-anchor="middle" font-size="14" font-weight="500" fill="#04342C">cases/*.yaml</text>
<text x="549" y="120" text-anchor="middle" font-size="12" fill="#0F6E56">一条用例一个文件</text>
<line x1="190" y1="108" x2="246" y2="108" stroke="#888780" stroke-width="1.5" marker-end="url(#arrow)"/>
<line x1="416" y1="108" x2="468" y2="108" stroke="#888780" stroke-width="1.5" marker-end="url(#arrow)"/>

<rect x="30" y="160" width="620" height="152" rx="8" fill="none" stroke="#D3D1C7" stroke-width="0.5" stroke-dasharray="4 3"/>
<text x="42" y="180" font-size="14" font-weight="500" fill="#2C2C2A">② 汇编 · 生成 queue.csv</text>
<rect x="246" y="196" width="170" height="44" rx="4" fill="#F1EFE8" stroke="#888780" stroke-width="0.5"/>
<text x="331" y="215" text-anchor="middle" font-size="14" font-weight="500" fill="#2C2C2A">compile_cases.py</text>
<text x="331" y="230" text-anchor="middle" font-size="12" fill="#5F5E5A">幂等 · 保状态</text>
<rect x="452" y="196" width="178" height="44" rx="4" fill="#FAEEDA" stroke="#BA7517" stroke-width="0.5"/>
<text x="541" y="215" text-anchor="middle" font-size="14" font-weight="500" fill="#633806">target.json · scope</text>
<text x="541" y="230" text-anchor="middle" font-size="12" fill="#854F0B">本轮范围开关</text>
<line x1="452" y1="218" x2="418" y2="218" stroke="#888780" stroke-width="1.5" marker-end="url(#arrow)"/>
<path d="M549,134 L549,170 L360,170 L360,196" fill="none" stroke="#888780" stroke-width="1.5" marker-end="url(#arrow)"/>
<path d="M320,240 L155,262" fill="none" stroke="#888780" stroke-width="1.5" marker-end="url(#arrow)"/>
<rect x="60" y="262" width="190" height="46" rx="4" fill="#E1F5EE" stroke="#0F6E56" stroke-width="0.5"/>
<text x="155" y="281" text-anchor="middle" font-size="14" font-weight="500" fill="#04342C">queue.csv</text>
<text x="155" y="296" text-anchor="middle" font-size="12" fill="#0F6E56">全量真值 · 所有用例 + 状态</text>
<rect x="410" y="262" width="190" height="46" rx="4" fill="#FAEEDA" stroke="#BA7517" stroke-width="0.5"/>
<text x="505" y="281" text-anchor="middle" font-size="14" font-weight="500" fill="#633806">board.csv</text>
<text x="505" y="296" text-anchor="middle" font-size="12" fill="#854F0B">本轮清单 + 状态</text>
<text x="330" y="279" text-anchor="middle" font-size="12" fill="#5F5E5A">scope 投影 · 实时</text>
<line x1="250" y1="285" x2="410" y2="285" stroke="#888780" stroke-width="1.5" marker-end="url(#arrow)"/>

<rect x="30" y="322" width="620" height="118" rx="8" fill="none" stroke="#D3D1C7" stroke-width="0.5" stroke-dasharray="4 3"/>
<text x="42" y="342" font-size="14" font-weight="500" fill="#2C2C2A">③ 执行用例</text>
<rect x="44" y="360" width="120" height="52" rx="4" fill="#FAECE7" stroke="#D85A30" stroke-width="0.5"/>
<text x="104" y="382" text-anchor="middle" font-size="14" font-weight="500" fill="#4A1B0C">执行大脑</text>
<text x="104" y="398" text-anchor="middle" font-size="12" fill="#993C1D">读 board 选待执行</text>
<rect x="176" y="360" width="104" height="52" rx="4" fill="#F1EFE8" stroke="#888780" stroke-width="0.5"/>
<text x="228" y="382" text-anchor="middle" font-size="14" font-weight="500" fill="#2C2C2A">run_flow.py</text>
<text x="228" y="398" text-anchor="middle" font-size="12" fill="#5F5E5A">计时 · 登记</text>
<rect x="292" y="360" width="100" height="52" rx="4" fill="#F1EFE8" stroke="#888780" stroke-width="0.5"/>
<text x="342" y="382" text-anchor="middle" font-size="14" font-weight="500" fill="#2C2C2A">flows/*.sh</text>
<text x="342" y="398" text-anchor="middle" font-size="12" fill="#5F5E5A">固化脚本</text>
<rect x="404" y="360" width="100" height="52" rx="4" fill="#F1EFE8" stroke="#888780" stroke-width="0.5"/>
<text x="454" y="382" text-anchor="middle" font-size="14" font-weight="500" fill="#2C2C2A">adbkit.py</text>
<text x="454" y="398" text-anchor="middle" font-size="12" fill="#5F5E5A">唯一碰 adb</text>
<rect x="516" y="360" width="114" height="52" rx="4" fill="#FAECE7" stroke="#D85A30" stroke-width="0.5"/>
<text x="573" y="382" text-anchor="middle" font-size="14" font-weight="500" fill="#4A1B0C">真机设备</text>
<text x="573" y="398" text-anchor="middle" font-size="12" fill="#993C1D">感知 + 操作</text>
<path d="M505,308 L505,332 L104,332 L104,360" fill="none" stroke="#888780" stroke-width="1.5" marker-end="url(#arrow)"/>
<line x1="164" y1="386" x2="176" y2="386" stroke="#888780" stroke-width="1.5" marker-end="url(#arrow)"/>
<line x1="280" y1="386" x2="292" y2="386" stroke="#888780" stroke-width="1.5" marker-end="url(#arrow)"/>
<line x1="392" y1="386" x2="404" y2="386" stroke="#888780" stroke-width="1.5" marker-end="url(#arrow)"/>
<line x1="504" y1="386" x2="516" y2="386" stroke="#888780" stroke-width="1.5" marker-end="url(#arrow)"/>

<rect x="30" y="452" width="620" height="120" rx="8" fill="none" stroke="#D3D1C7" stroke-width="0.5" stroke-dasharray="4 3"/>
<text x="42" y="472" font-size="14" font-weight="500" fill="#2C2C2A">④ 判定 &amp; 回写真值</text>
<rect x="44" y="490" width="180" height="52" rx="4" fill="#E1F5EE" stroke="#0F6E56" stroke-width="0.5"/>
<text x="134" y="512" text-anchor="middle" font-size="14" font-weight="500" fill="#04342C">证据采集</text>
<text x="134" y="528" text-anchor="middle" font-size="12" fill="#0F6E56">截图 · 产物 · 日志</text>
<rect x="250" y="490" width="150" height="52" rx="4" fill="#F1EFE8" stroke="#888780" stroke-width="0.5"/>
<text x="325" y="512" text-anchor="middle" font-size="14" font-weight="500" fill="#2C2C2A">case_result.py</text>
<text x="325" y="528" text-anchor="middle" font-size="12" fill="#5F5E5A">判定 · 登记</text>
<rect x="430" y="490" width="200" height="52" rx="4" fill="#E1F5EE" stroke="#0F6E56" stroke-width="0.5"/>
<text x="530" y="512" text-anchor="middle" font-size="14" font-weight="500" fill="#04342C">log/evidence/issues</text>
<text x="530" y="528" text-anchor="middle" font-size="12" fill="#0F6E56">追加账本</text>
<path d="M573,412 L573,460 L134,460 L134,490" fill="none" stroke="#888780" stroke-width="1.5" marker-end="url(#arrow)"/>
<line x1="224" y1="516" x2="250" y2="516" stroke="#888780" stroke-width="1.5" marker-end="url(#arrow)"/>
<line x1="400" y1="516" x2="430" y2="516" stroke="#888780" stroke-width="1.5" marker-end="url(#arrow)"/>
<path d="M300,542 L300,558 L40,558 L40,285 L60,285" fill="none" stroke="#888780" stroke-width="1" stroke-dasharray="4 3" marker-end="url(#arrow)"/>
<text x="150" y="553" font-size="12" fill="#5F5E5A">回写状态 → queue.csv（真值）</text>

<rect x="30" y="584" width="620" height="140" rx="8" fill="none" stroke="#D3D1C7" stroke-width="0.5" stroke-dasharray="4 3"/>
<text x="42" y="604" font-size="14" font-weight="500" fill="#2C2C2A">⑤ 同步云端</text>
<text x="150" y="604" font-size="12" fill="#5F5E5A">读 board + 结构/摘要(本轮投影) + 证据</text>
<rect x="80" y="622" width="180" height="42" rx="4" fill="#F1EFE8" stroke="#888780" stroke-width="0.5"/>
<text x="170" y="639" text-anchor="middle" font-size="14" font-weight="500" fill="#2C2C2A">sheets_sync.py</text>
<text x="170" y="654" text-anchor="middle" font-size="12" fill="#5F5E5A">推 7 个 tab</text>
<rect x="80" y="674" width="180" height="42" rx="4" fill="#EEEDFE" stroke="#534AB7" stroke-width="0.5"/>
<text x="170" y="691" text-anchor="middle" font-size="14" font-weight="500" fill="#26215C">Google Sheet 看板</text>
<text x="170" y="706" text-anchor="middle" font-size="12" fill="#3C3489">只读展示</text>
<rect x="420" y="622" width="180" height="42" rx="4" fill="#F1EFE8" stroke="#888780" stroke-width="0.5"/>
<text x="510" y="639" text-anchor="middle" font-size="14" font-weight="500" fill="#2C2C2A">doc_report.py</text>
<text x="510" y="654" text-anchor="middle" font-size="12" fill="#5F5E5A">拼图文报告</text>
<rect x="420" y="674" width="180" height="42" rx="4" fill="#EEEDFE" stroke="#534AB7" stroke-width="0.5"/>
<text x="510" y="691" text-anchor="middle" font-size="14" font-weight="500" fill="#26215C">Google Doc 报告</text>
<text x="510" y="706" text-anchor="middle" font-size="12" fill="#3C3489">内嵌证据截图</text>
<line x1="170" y1="664" x2="170" y2="674" stroke="#888780" stroke-width="1.5" marker-end="url(#arrow)"/>
<line x1="510" y1="664" x2="510" y2="674" stroke="#888780" stroke-width="1.5" marker-end="url(#arrow)"/>

<rect x="44" y="738" width="14" height="14" rx="3" fill="#F1EFE8" stroke="#888780" stroke-width="0.5"/>
<text x="64" y="749" font-size="12" fill="#5F5E5A">脚本 / 步骤</text>
<rect x="150" y="738" width="14" height="14" rx="3" fill="#E1F5EE" stroke="#0F6E56" stroke-width="0.5"/>
<text x="170" y="749" font-size="12" fill="#5F5E5A">全量账本 · 真值</text>
<rect x="300" y="738" width="14" height="14" rx="3" fill="#FAEEDA" stroke="#BA7517" stroke-width="0.5"/>
<text x="320" y="749" font-size="12" fill="#5F5E5A">本轮投影 · 新增</text>
<rect x="470" y="738" width="14" height="14" rx="3" fill="#FAECE7" stroke="#D85A30" stroke-width="0.5"/>
<text x="490" y="749" font-size="12" fill="#5F5E5A">执行 / 设备</text>
<rect x="570" y="738" width="14" height="14" rx="3" fill="#EEEDFE" stroke="#534AB7" stroke-width="0.5"/>
<text x="590" y="749" font-size="12" fill="#5F5E5A">云端</text>
</svg>
